<svg xmlns="http://www.w3.org/2000/svg" width="256" height="256" viewBox="0 0 96 96" role="img" aria-label="mediscan icon alt">
  <defs>
    <linearGradient id="g1" x1="0" x2="1" y1="0" y2="1">
      <stop offset="0%" stop-color="#22d3ee"/>
      <stop offset="100%" stop-color="#60a5fa"/>
    </linearGradient>
    <linearGradient id="g2" x1="0" x2="1" y1="1" y2="0">
      <stop offset="0%" stop-color="#0ea5e9"/>
      <stop offset="100%" stop-color="#6366f1"/>
    </linearGradient>
  </defs>
  <rect x="6" y="6" rx="18" ry="18" width="84" height="84" fill="rgba(255,255,255,0.06)" stroke="url(#g1)" stroke-width="2"/>
  <!-- scan brackets -->
  <path d="M18 30 v-10 a10 10 0 0 1 10-10 h10" fill="none" stroke="url(#g1)" stroke-width="5" stroke-linecap="round"/>
  <path d="M78 30 v-10 a10 10 0 0 0-10-10 h-10" fill="none" stroke="url(#g1)" stroke-width="5" stroke-linecap="round"/>
  <path d="M18 66 v10 a10 10 0 0 0 10 10 h10" fill="none" stroke="url(#g1)" stroke-width="5" stroke-linecap="round"/>
  <path d="M78 66 v10 a10 10 0 0 1-10 10 h-10" fill="none" stroke="url(#g1)" stroke-width="5" stroke-linecap="round"/>
  <!-- capsule -->
  <g transform="translate(20,34)">
    <rect x="0" y="0" width="56" height="28" rx="14" ry="14" fill="url(#g2)"/>
    <rect x="0" y="0" width="28" height="28" rx="14" ry="14" fill="#22d3ee" opacity="0.85"/>
    <rect x="28" y="0" width="28" height="28" rx="14" ry="14" fill="#60a5fa" opacity="0.85"/>
    <rect x="27.5" y="2" width="1" height="24" fill="rgba(255,255,255,.65)"/>
  </g>
  <!-- heartbeat line -->
  <path d="M20 62 h12 l6 -10 l6 16 l6 -10 h22" fill="none" stroke="#e2e8f0" stroke-width="2.5" stroke-linecap="round" stroke-linejoin="round" opacity=".9"/>
</svg>

